<svg width="384" height="345" viewBox="0 0 384 345" fill="none" xmlns="http://www.w3.org/2000/svg">
<rect width="384" height="345" fill="#A1D5FB" fill-opacity="0.31"/>
<g filter="url(#filter0_d_400_1389)">
<rect x="77" y="40" width="229" height="264" rx="12" fill="white"/>
<rect x="77.5" y="40.5" width="228" height="263" rx="11.5" stroke="#545454"/>
</g>
<path d="M287.101 176.184L323.168 232.146C324.24 233.809 323.046 236 321.067 236H248.933C246.954 236 245.76 233.809 246.832 232.146L282.899 176.184C283.883 174.656 286.117 174.656 287.101 176.184Z" fill="#ED9C51" stroke="#545454"/>
<rect x="41.5" y="136.5" width="150" height="6" fill="#ED9C51" stroke="black"/>
<rect x="41.5" y="114.5" width="150" height="6" fill="#ED9C51" stroke="black"/>
<rect x="41.5" y="92.5" width="150" height="6" fill="#ED9C51" stroke="black"/>
<path d="M120.757 255.011L120.755 255.008C119.935 254.032 118.434 254.059 117.677 255.087L110.351 264.502C110.351 264.502 110.35 264.503 110.35 264.503C109.331 265.798 110.233 267.696 111.892 267.696H147.196C147.562 267.696 147.921 267.594 148.233 267.402C148.545 267.209 148.796 266.933 148.96 266.606C149.124 266.278 149.193 265.912 149.16 265.547C149.127 265.182 148.994 264.834 148.774 264.541L138.441 250.763C138.44 250.762 138.44 250.762 138.44 250.762C137.653 249.701 136.079 249.699 135.288 250.725C135.288 250.726 135.287 250.726 135.287 250.726L126.543 261.981L120.757 255.011ZM155.5 228.889V270.111C155.5 273.074 153.074 275.5 150.111 275.5H108.889C105.926 275.5 103.5 273.074 103.5 270.111V228.889C103.5 225.926 105.926 223.5 108.889 223.5H150.111C153.074 223.5 155.5 225.926 155.5 228.889Z" fill="#ED9C51" stroke="black"/>
<defs>
<filter id="filter0_d_400_1389" x="73" y="40" width="237" height="272" filterUnits="userSpaceOnUse" color-interpolation-filters="sRGB">
<feFlood flood-opacity="0" result="BackgroundImageFix"/>
<feColorMatrix in="SourceAlpha" type="matrix" values="0 0 0 0 0 0 0 0 0 0 0 0 0 0 0 0 0 0 127 0" result="hardAlpha"/>
<feOffset dy="4"/>
<feGaussianBlur stdDeviation="2"/>
<feComposite in2="hardAlpha" operator="out"/>
<feColorMatrix type="matrix" values="0 0 0 0 0 0 0 0 0 0 0 0 0 0 0 0 0 0 0.25 0"/>
<feBlend mode="normal" in2="BackgroundImageFix" result="effect1_dropShadow_400_1389"/>
<feBlend mode="normal" in="SourceGraphic" in2="effect1_dropShadow_400_1389" result="shape"/>
</filter>
</defs>
</svg>
