<svg width="384" height="345" viewBox="0 0 384 345" fill="none" xmlns="http://www.w3.org/2000/svg">
<rect width="384" height="345" fill="#FBC1A1" fill-opacity="0.31"/>
<g filter="url(#filter0_d_401_1460)">
<rect x="226.435" y="103" width="126" height="126" rx="12" transform="rotate(8.41317 226.435 103)" fill="white"/>
<rect x="226.857" y="103.568" width="125" height="125" rx="11.5" transform="rotate(8.41317 226.857 103.568)" stroke="#545454"/>
</g>
<g filter="url(#filter1_d_401_1460)">
<rect x="49" y="31" width="102" height="103" rx="12" fill="white"/>
<rect x="49.5" y="31.5" width="101" height="102" rx="11.5" stroke="#545454"/>
</g>
<g filter="url(#filter2_d_401_1460)">
<rect x="82" y="57" width="102" height="103" rx="12" fill="white"/>
<rect x="82.5" y="57.5" width="101" height="102" rx="11.5" stroke="#545454"/>
</g>
<mask id="path-8-outside-1_401_1460" maskUnits="userSpaceOnUse" x="102" y="80" width="43" height="40" fill="black">
<rect fill="white" x="102" y="80" width="43" height="40"/>
<path d="M130.64 89.96L135.76 91.44C130.72 105.84 121.4 114.24 107.08 118.72C106.52 117.52 105 115.2 104.04 114.04C117.88 110.4 126.48 103 130.64 89.96ZM115.2 90.28C119.24 102.12 127.88 110.64 142.12 113.84C140.96 114.96 139.4 117.24 138.64 118.64C123.64 114.72 115.4 105.56 110.4 91.72L115.2 90.28ZM104.76 87.36H141.4V92.08H104.76V87.36ZM120.48 81.04H125.44V90.24H120.48V81.04Z"/>
</mask>
<path d="M130.64 89.96L135.76 91.44C130.72 105.84 121.4 114.24 107.08 118.72C106.52 117.52 105 115.2 104.04 114.04C117.88 110.4 126.48 103 130.64 89.96ZM115.2 90.28C119.24 102.12 127.88 110.64 142.12 113.84C140.96 114.96 139.4 117.24 138.64 118.64C123.64 114.72 115.4 105.56 110.4 91.72L115.2 90.28ZM104.76 87.36H141.4V92.08H104.76V87.36ZM120.48 81.04H125.44V90.24H120.48V81.04Z" fill="#ED9C51"/>
<path d="M130.64 89.96L130.918 88.9993L129.983 88.7291L129.687 89.6561L130.64 89.96ZM135.76 91.44L136.704 91.7703L137.053 90.7728L136.038 90.4793L135.76 91.44ZM107.08 118.72L106.174 119.143L106.544 119.936L107.379 119.674L107.08 118.72ZM104.04 114.04L103.786 113.073L102.271 113.471L103.27 114.678L104.04 114.04ZM115.2 90.28L116.146 89.9571L115.835 89.0454L114.913 89.3222L115.2 90.28ZM142.12 113.84L142.815 114.559L144.149 113.271L142.339 112.864L142.12 113.84ZM138.64 118.64L138.387 119.608L139.145 119.806L139.519 119.117L138.64 118.64ZM110.4 91.72L110.113 90.7622L109.1 91.0658L109.459 92.0598L110.4 91.72ZM104.76 87.36V86.36H103.76V87.36H104.76ZM141.4 87.36H142.4V86.36H141.4V87.36ZM141.4 92.08V93.08H142.4V92.08H141.4ZM104.76 92.08H103.76V93.08H104.76V92.08ZM120.48 81.04V80.04H119.48V81.04H120.48ZM125.44 81.04H126.44V80.04H125.44V81.04ZM125.44 90.24V91.24H126.44V90.24H125.44ZM120.48 90.24H119.48V91.24H120.48V90.24ZM130.362 90.9207L135.482 92.4007L136.038 90.4793L130.918 88.9993L130.362 90.9207ZM134.816 91.1096C129.888 105.191 120.821 113.373 106.781 117.766L107.379 119.674C121.979 115.107 131.552 106.489 136.704 91.7703L134.816 91.1096ZM107.986 118.297C107.383 117.005 105.813 114.613 104.81 113.402L103.27 114.678C104.187 115.787 105.657 118.035 106.174 119.143L107.986 118.297ZM104.294 115.007C111.326 113.158 117.09 110.336 121.637 106.27C126.188 102.2 129.466 96.9288 131.593 90.2639L129.687 89.6561C127.654 96.0312 124.552 100.98 120.303 104.78C116.05 108.584 110.594 111.282 103.786 113.073L104.294 115.007ZM114.254 90.6029C118.405 102.769 127.318 111.539 141.901 114.816L142.339 112.864C128.442 109.741 120.075 101.471 116.146 89.9571L114.254 90.6029ZM141.425 113.121C140.165 114.338 138.548 116.714 137.761 118.163L139.519 119.117C140.253 117.766 141.755 115.582 142.815 114.559L141.425 113.121ZM138.893 117.672C131.542 115.751 125.894 112.561 121.473 108.189C117.047 103.811 113.805 98.2028 111.341 91.3802L109.459 92.0598C111.995 99.0772 115.373 104.969 120.067 109.611C124.766 114.259 130.738 117.609 138.387 119.608L138.893 117.672ZM110.687 92.6778L115.487 91.2378L114.913 89.3222L110.113 90.7622L110.687 92.6778ZM104.76 88.36H141.4V86.36H104.76V88.36ZM140.4 87.36V92.08H142.4V87.36H140.4ZM141.4 91.08H104.76V93.08H141.4V91.08ZM105.76 92.08V87.36H103.76V92.08H105.76ZM120.48 82.04H125.44V80.04H120.48V82.04ZM124.44 81.04V90.24H126.44V81.04H124.44ZM125.44 89.24H120.48V91.24H125.44V89.24ZM121.48 90.24V81.04H119.48V90.24H121.48Z" fill="black" mask="url(#path-8-outside-1_401_1460)"/>
<mask id="path-10-outside-2_401_1460" maskUnits="userSpaceOnUse" x="126" y="99" width="37" height="37" fill="black">
<rect fill="white" x="126" y="99" width="37" height="37"/>
<path d="M153.289 135L150.805 126.844H138.312L135.828 135H128L140.094 100.594H148.977L161.117 135H153.289ZM149.07 120.75L146.586 112.781C146.43 112.25 146.219 111.57 145.953 110.742C145.703 109.898 145.445 109.047 145.18 108.188C144.93 107.312 144.727 106.555 144.57 105.914C144.414 106.555 144.195 107.352 143.914 108.305C143.648 109.242 143.391 110.133 143.141 110.977C142.891 111.82 142.711 112.422 142.602 112.781L140.141 120.75H149.07Z"/>
</mask>
<path d="M153.289 135L150.805 126.844H138.312L135.828 135H128L140.094 100.594H148.977L161.117 135H153.289ZM149.07 120.75L146.586 112.781C146.43 112.25 146.219 111.57 145.953 110.742C145.703 109.898 145.445 109.047 145.18 108.188C144.93 107.312 144.727 106.555 144.57 105.914C144.414 106.555 144.195 107.352 143.914 108.305C143.648 109.242 143.391 110.133 143.141 110.977C142.891 111.82 142.711 112.422 142.602 112.781L140.141 120.75H149.07Z" fill="#ED9C51"/>
<path d="M153.289 135L152.332 135.291L152.548 136H153.289V135ZM150.805 126.844L151.761 126.552L151.545 125.844H150.805V126.844ZM138.312 126.844V125.844H137.572L137.356 126.552L138.312 126.844ZM135.828 135V136H136.569L136.785 135.291L135.828 135ZM128 135L127.057 134.668L126.589 136H128V135ZM140.094 100.594V99.5938H139.385L139.15 100.262L140.094 100.594ZM148.977 100.594L149.92 100.261L149.684 99.5938H148.977V100.594ZM161.117 135V136H162.53L162.06 134.667L161.117 135ZM149.07 120.75V121.75H150.43L150.025 120.452L149.07 120.75ZM146.586 112.781L145.627 113.063L145.629 113.071L145.631 113.079L146.586 112.781ZM145.953 110.742L144.994 111.026L144.997 111.037L145.001 111.048L145.953 110.742ZM145.18 108.188L144.218 108.462L144.221 108.473L144.224 108.483L145.18 108.188ZM144.57 105.914L145.542 105.677H143.599L144.57 105.914ZM143.914 108.305L142.955 108.022L142.952 108.032L143.914 108.305ZM142.602 112.781L143.557 113.076L143.558 113.072L142.602 112.781ZM140.141 120.75L139.185 120.455L138.785 121.75H140.141V120.75ZM154.246 134.709L151.761 126.552L149.848 127.135L152.332 135.291L154.246 134.709ZM150.805 125.844H138.312V127.844H150.805V125.844ZM137.356 126.552L134.872 134.709L136.785 135.291L139.269 127.135L137.356 126.552ZM135.828 134H128V136H135.828V134ZM128.943 135.332L141.037 100.925L139.15 100.262L127.057 134.668L128.943 135.332ZM140.094 101.594H148.977V99.5938H140.094V101.594ZM148.034 100.927L160.174 135.333L162.06 134.667L149.92 100.261L148.034 100.927ZM161.117 134H153.289V136H161.117V134ZM150.025 120.452L147.541 112.484L145.631 113.079L148.116 121.048L150.025 120.452ZM147.545 112.499C147.386 111.957 147.172 111.269 146.905 110.437L145.001 111.048C145.265 111.872 145.474 112.543 145.627 113.063L147.545 112.499ZM146.912 110.458C146.661 109.611 146.402 108.755 146.135 107.892L144.224 108.483C144.489 109.339 144.745 110.186 144.994 111.026L146.912 110.458ZM146.141 107.913C145.894 107.046 145.694 106.301 145.542 105.677L143.599 106.151C143.759 106.808 143.966 107.579 144.218 108.462L146.141 107.913ZM143.599 105.677C143.448 106.297 143.234 107.077 142.955 108.022L144.873 108.588C145.157 107.626 145.38 106.813 145.542 106.151L143.599 105.677ZM142.952 108.032C142.687 108.966 142.431 109.853 142.182 110.692L144.099 111.261C144.351 110.413 144.61 109.518 144.876 108.577L142.952 108.032ZM142.182 110.692C141.932 111.536 141.753 112.135 141.645 112.49L143.558 113.072C143.669 112.709 143.849 112.104 144.099 111.261L142.182 110.692ZM141.646 112.486L139.185 120.455L141.096 121.045L143.557 113.076L141.646 112.486ZM140.141 121.75H149.07V119.75H140.141V121.75Z" fill="black" mask="url(#path-10-outside-2_401_1460)"/>
<rect x="0.459505" y="0.570394" width="75.0875" height="3.4907" transform="matrix(0.989681 0.143288 -0.070671 0.9975 245.695 177.872)" fill="#ED9C51" stroke="black"/>
<rect x="0.459505" y="0.570394" width="75.0875" height="3.4907" transform="matrix(0.989681 0.143288 -0.070671 0.9975 243.259 194.697)" fill="#ED9C51" stroke="black"/>
<rect x="0.459505" y="0.570394" width="75.0875" height="3.4907" transform="matrix(0.989681 0.143288 -0.070671 0.9975 247.141 160.904)" fill="#ED9C51" stroke="black"/>
<rect x="0.459505" y="0.570394" width="75.0875" height="3.4907" transform="matrix(0.989681 0.143288 -0.070671 0.9975 249.239 143.891)" fill="#ED9C51" stroke="black"/>
<mask id="path-16-outside-3_401_1460" maskUnits="userSpaceOnUse" x="233.124" y="135.913" width="10.34" height="11.1864" fill="black">
<rect fill="white" x="233.124" y="135.913" width="10.34" height="11.1864"/>
<path d="M238.942 137.876C239.811 138.002 240.451 138.288 240.86 138.734C241.269 139.18 241.418 139.79 241.306 140.563L240.68 144.883L239.445 144.705L239.23 143.774L239.184 143.767C238.965 143.972 238.748 144.134 238.534 144.253C238.319 144.372 238.081 144.448 237.82 144.481C237.558 144.514 237.248 144.505 236.888 144.453C236.506 144.397 236.172 144.274 235.888 144.083C235.608 143.892 235.402 143.634 235.272 143.307C235.142 142.977 235.111 142.577 235.179 142.11C235.279 141.421 235.594 140.95 236.124 140.695C236.655 140.437 237.406 140.36 238.377 140.465L239.507 140.593L239.549 140.309C239.598 139.969 239.545 139.706 239.39 139.522C239.235 139.338 238.999 139.223 238.682 139.177C238.369 139.132 238.055 139.132 237.741 139.177C237.427 139.222 237.109 139.291 236.788 139.382L236.375 138.103C236.745 137.971 237.151 137.884 237.591 137.841C238.035 137.799 238.485 137.81 238.942 137.876ZM239.358 141.625L238.67 141.549C238.096 141.482 237.683 141.527 237.431 141.684C237.184 141.841 237.037 142.075 236.992 142.384C236.953 142.655 237.005 142.859 237.146 142.998C237.289 143.133 237.487 143.219 237.742 143.256C238.121 143.311 238.456 143.245 238.748 143.058C239.043 142.872 239.221 142.572 239.281 142.159L239.358 141.625Z"/>
</mask>
<path d="M238.942 137.876C239.811 138.002 240.451 138.288 240.86 138.734C241.269 139.18 241.418 139.79 241.306 140.563L240.68 144.883L239.445 144.705L239.23 143.774L239.184 143.767C238.965 143.972 238.748 144.134 238.534 144.253C238.319 144.372 238.081 144.448 237.82 144.481C237.558 144.514 237.248 144.505 236.888 144.453C236.506 144.397 236.172 144.274 235.888 144.083C235.608 143.892 235.402 143.634 235.272 143.307C235.142 142.977 235.111 142.577 235.179 142.11C235.279 141.421 235.594 140.95 236.124 140.695C236.655 140.437 237.406 140.36 238.377 140.465L239.507 140.593L239.549 140.309C239.598 139.969 239.545 139.706 239.39 139.522C239.235 139.338 238.999 139.223 238.682 139.177C238.369 139.132 238.055 139.132 237.741 139.177C237.427 139.222 237.109 139.291 236.788 139.382L236.375 138.103C236.745 137.971 237.151 137.884 237.591 137.841C238.035 137.799 238.485 137.81 238.942 137.876ZM239.358 141.625L238.67 141.549C238.096 141.482 237.683 141.527 237.431 141.684C237.184 141.841 237.037 142.075 236.992 142.384C236.953 142.655 237.005 142.859 237.146 142.998C237.289 143.133 237.487 143.219 237.742 143.256C238.121 143.311 238.456 143.245 238.748 143.058C239.043 142.872 239.221 142.572 239.281 142.159L239.358 141.625Z" fill="#ED9C51"/>
<path d="M240.68 144.883L240.537 145.873L241.527 146.016L241.67 145.027L240.68 144.883ZM239.445 144.705L238.471 144.929L238.624 145.596L239.302 145.694L239.445 144.705ZM239.23 143.774L240.205 143.549L240.051 142.882L239.374 142.784L239.23 143.774ZM239.184 143.767L239.327 142.777L238.852 142.708L238.501 143.037L239.184 143.767ZM235.888 144.083L235.326 144.91L235.33 144.913L235.888 144.083ZM235.272 143.307L234.341 143.672L234.343 143.678L235.272 143.307ZM236.124 140.695L236.557 141.597L236.562 141.594L236.124 140.695ZM238.377 140.465L238.49 139.471L238.485 139.471L238.377 140.465ZM239.507 140.593L239.395 141.587L240.358 141.696L240.497 140.736L239.507 140.593ZM236.788 139.382L235.836 139.689L236.133 140.609L237.062 140.344L236.788 139.382ZM236.375 138.103L236.039 137.161L235.125 137.486L235.423 138.41L236.375 138.103ZM237.591 137.841L237.496 136.845L237.494 136.845L237.591 137.841ZM239.358 141.625L240.348 141.768L240.496 140.745L239.468 140.631L239.358 141.625ZM238.67 141.549L238.554 142.543L238.561 142.543L238.67 141.549ZM237.431 141.684L236.902 140.835L236.895 140.84L237.431 141.684ZM237.146 142.998L236.446 143.712L236.452 143.718L236.458 143.723L237.146 142.998ZM238.748 143.058L238.215 142.212L238.208 142.216L238.748 143.058ZM238.798 138.866C239.54 138.974 239.927 139.196 240.123 139.41L241.597 138.059C240.975 137.38 240.083 137.031 239.085 136.887L238.798 138.866ZM240.123 139.41C240.273 139.574 240.398 139.851 240.316 140.42L242.295 140.707C242.437 139.73 242.265 138.787 241.597 138.059L240.123 139.41ZM240.316 140.42L239.69 144.74L241.67 145.027L242.295 140.707L240.316 140.42ZM240.823 143.894L239.588 143.715L239.302 145.694L240.537 145.873L240.823 143.894ZM240.419 144.48L240.205 143.549L238.256 143.998L238.471 144.929L240.419 144.48ZM239.374 142.784L239.327 142.777L239.041 144.757L239.087 144.763L239.374 142.784ZM238.501 143.037C238.329 143.198 238.178 143.307 238.049 143.378L239.018 145.128C239.319 144.961 239.601 144.746 239.867 144.497L238.501 143.037ZM238.049 143.378C237.953 143.431 237.838 143.471 237.694 143.489L237.946 145.473C238.324 145.425 238.685 145.312 239.018 145.128L238.049 143.378ZM237.694 143.489C237.548 143.508 237.333 143.507 237.032 143.463L236.745 145.443C237.163 145.503 237.568 145.521 237.946 145.473L237.694 143.489ZM237.032 143.463C236.778 143.426 236.59 143.35 236.446 143.253L235.33 144.913C235.754 145.198 236.233 145.368 236.745 145.443L237.032 143.463ZM236.45 143.256C236.341 143.182 236.26 143.085 236.201 142.937L234.343 143.678C234.545 144.182 234.874 144.603 235.326 144.91L236.45 143.256ZM236.203 142.942C236.154 142.818 236.118 142.604 236.169 142.253L234.189 141.966C234.105 142.551 234.13 143.135 234.341 143.672L236.203 142.942ZM236.169 142.253C236.231 141.825 236.385 141.679 236.557 141.597L235.691 139.794C234.802 140.221 234.327 141.018 234.189 141.966L236.169 142.253ZM236.562 141.594C236.846 141.456 237.376 141.362 238.27 141.459L238.485 139.471C237.436 139.357 236.464 139.417 235.686 139.796L236.562 141.594ZM238.265 141.459L239.395 141.587L239.62 139.599L238.49 139.471L238.265 141.459ZM240.497 140.736L240.538 140.452L238.559 140.166L238.518 140.45L240.497 140.736ZM240.538 140.452C240.61 139.954 240.562 139.362 240.156 138.879L238.625 140.166C238.605 140.143 238.591 140.119 238.58 140.097C238.57 140.075 238.567 140.06 238.566 140.054C238.565 140.05 238.566 140.055 238.566 140.074C238.567 140.093 238.565 140.123 238.559 140.166L240.538 140.452ZM240.156 138.879C239.797 138.452 239.304 138.257 238.826 138.187L238.539 140.167C238.617 140.178 238.652 140.193 238.659 140.196C238.662 140.198 238.658 140.197 238.651 140.191C238.643 140.185 238.634 140.177 238.625 140.166L240.156 138.879ZM238.826 138.187C238.417 138.128 238.007 138.128 237.598 138.187L237.883 140.167C238.103 140.135 238.321 140.135 238.539 140.167L238.826 138.187ZM237.598 138.187C237.237 138.239 236.875 138.317 236.513 138.421L237.062 140.344C237.342 140.264 237.616 140.205 237.883 140.167L237.598 138.187ZM237.739 139.075L237.327 137.796L235.423 138.41L235.836 139.689L237.739 139.075ZM236.71 139.045C236.995 138.944 237.319 138.872 237.688 138.836L237.494 136.845C236.982 136.895 236.496 136.998 236.039 137.161L236.71 139.045ZM237.686 138.836C238.048 138.802 238.418 138.811 238.798 138.866L239.085 136.887C238.553 136.81 238.022 136.795 237.496 136.845L237.686 138.836ZM239.468 140.631L238.78 140.555L238.561 142.543L239.248 142.619L239.468 140.631ZM238.787 140.556C238.17 140.484 237.459 140.488 236.902 140.835L237.961 142.532C237.918 142.559 237.925 142.539 238.038 142.527C238.147 142.515 238.315 142.514 238.554 142.543L238.787 140.556ZM236.895 140.84C236.384 141.165 236.086 141.664 236.003 142.241L237.982 142.527C237.985 142.509 237.988 142.5 237.988 142.498C237.989 142.497 237.987 142.501 237.983 142.508C237.979 142.515 237.973 142.521 237.969 142.526C237.964 142.531 237.963 142.531 237.968 142.528L236.895 140.84ZM236.003 142.241C235.936 142.699 235.998 143.273 236.446 143.712L237.846 142.284C237.916 142.352 237.955 142.433 237.972 142.498C237.985 142.553 237.976 142.57 237.982 142.527L236.003 142.241ZM236.458 143.723C236.791 144.04 237.203 144.189 237.599 144.246L237.886 142.267C237.829 142.258 237.804 142.248 237.799 142.246C237.796 142.245 237.812 142.252 237.835 142.273L236.458 143.723ZM237.599 144.246C238.189 144.331 238.772 144.231 239.287 143.9L238.208 142.216C238.141 142.259 238.054 142.291 237.886 142.267L237.599 144.246ZM239.281 143.904C239.873 143.531 240.178 142.943 240.27 142.302L238.291 142.015C238.276 142.118 238.253 142.167 238.242 142.184C238.234 142.198 238.228 142.204 238.215 142.212L239.281 143.904ZM240.27 142.302L240.348 141.768L238.368 141.482L238.291 142.015L240.27 142.302Z" fill="black" mask="url(#path-16-outside-3_401_1460)"/>
<mask id="path-18-outside-4_401_1460" maskUnits="userSpaceOnUse" x="230.401" y="151.748" width="11.7595" height="14.2987" fill="black">
<rect fill="white" x="230.401" y="151.748" width="11.7595" height="14.2987"/>
<path d="M235.68 154.145L235.376 156.245C235.341 156.488 235.298 156.729 235.248 156.966C235.202 157.204 235.159 157.387 235.121 157.516L235.191 157.526C235.399 157.284 235.664 157.091 235.985 156.948C236.306 156.802 236.701 156.762 237.168 156.83C237.895 156.935 238.444 157.304 238.814 157.938C239.184 158.572 239.289 159.438 239.13 160.536C239.023 161.274 238.829 161.88 238.548 162.352C238.267 162.82 237.92 163.155 237.508 163.356C237.097 163.553 236.644 163.616 236.149 163.544C235.673 163.475 235.311 163.336 235.061 163.126C234.811 162.916 234.616 162.693 234.477 162.455L234.355 162.438L233.956 163.108L232.605 162.912L233.912 153.889L235.68 154.145ZM236.395 158.162C236.086 158.118 235.831 158.146 235.631 158.247C235.431 158.348 235.27 158.52 235.148 158.763C235.03 159.007 234.938 159.323 234.874 159.712L234.846 159.904C234.755 160.534 234.778 161.031 234.915 161.394C235.052 161.753 235.367 161.968 235.858 162.039C236.221 162.092 236.533 161.966 236.795 161.66C237.06 161.355 237.238 160.885 237.33 160.251C237.422 159.617 237.383 159.124 237.213 158.772C237.043 158.42 236.77 158.217 236.395 158.162Z"/>
</mask>
<path d="M235.68 154.145L235.376 156.245C235.341 156.488 235.298 156.729 235.248 156.966C235.202 157.204 235.159 157.387 235.121 157.516L235.191 157.526C235.399 157.284 235.664 157.091 235.985 156.948C236.306 156.802 236.701 156.762 237.168 156.83C237.895 156.935 238.444 157.304 238.814 157.938C239.184 158.572 239.289 159.438 239.13 160.536C239.023 161.274 238.829 161.88 238.548 162.352C238.267 162.82 237.92 163.155 237.508 163.356C237.097 163.553 236.644 163.616 236.149 163.544C235.673 163.475 235.311 163.336 235.061 163.126C234.811 162.916 234.616 162.693 234.477 162.455L234.355 162.438L233.956 163.108L232.605 162.912L233.912 153.889L235.68 154.145ZM236.395 158.162C236.086 158.118 235.831 158.146 235.631 158.247C235.431 158.348 235.27 158.52 235.148 158.763C235.03 159.007 234.938 159.323 234.874 159.712L234.846 159.904C234.755 160.534 234.778 161.031 234.915 161.394C235.052 161.753 235.367 161.968 235.858 162.039C236.221 162.092 236.533 161.966 236.795 161.66C237.06 161.355 237.238 160.885 237.33 160.251C237.422 159.617 237.383 159.124 237.213 158.772C237.043 158.42 236.77 158.217 236.395 158.162Z" fill="#ED9C51"/>
<path d="M235.68 154.145L236.67 154.289L236.813 153.299L235.823 153.156L235.68 154.145ZM235.248 156.966L234.27 156.759L234.268 156.767L234.267 156.775L235.248 156.966ZM235.121 157.516L234.163 157.23L233.832 158.34L234.978 158.506L235.121 157.516ZM235.191 157.526L235.047 158.516L235.59 158.594L235.948 158.179L235.191 157.526ZM235.985 156.948L236.392 157.862L236.401 157.858L235.985 156.948ZM238.548 162.352L239.405 162.866L239.407 162.864L238.548 162.352ZM237.508 163.356L237.94 164.258L237.946 164.255L237.508 163.356ZM234.477 162.455L235.339 161.949L235.096 161.534L234.62 161.466L234.477 162.455ZM234.355 162.438L234.499 161.448L233.838 161.352L233.496 161.926L234.355 162.438ZM233.956 163.108L233.813 164.098L234.474 164.193L234.816 163.619L233.956 163.108ZM232.605 162.912L231.615 162.769L231.472 163.759L232.462 163.902L232.605 162.912ZM233.912 153.889L234.055 152.9L233.065 152.756L232.922 153.746L233.912 153.889ZM235.148 158.763L234.254 158.314L234.248 158.327L235.148 158.763ZM234.874 159.712L233.888 159.55L233.886 159.559L233.885 159.569L234.874 159.712ZM234.915 161.394L233.979 161.746L233.981 161.751L234.915 161.394ZM236.795 161.66L236.04 161.004L236.035 161.01L236.795 161.66ZM234.69 154.002L234.387 156.101L236.366 156.388L236.67 154.289L234.69 154.002ZM234.387 156.101C234.354 156.324 234.315 156.543 234.27 156.759L236.227 157.173C236.281 156.914 236.328 156.652 236.366 156.388L234.387 156.101ZM234.267 156.775C234.222 157.002 234.187 157.148 234.163 157.23L236.079 157.802C236.132 157.627 236.181 157.406 236.23 157.157L234.267 156.775ZM234.978 158.506L235.047 158.516L235.334 156.536L235.264 156.526L234.978 158.506ZM235.948 158.179C236.052 158.059 236.193 157.951 236.392 157.862L235.577 156.035C235.136 156.232 234.747 156.509 234.433 156.873L235.948 158.179ZM236.401 157.858C236.497 157.814 236.685 157.77 237.025 157.819L237.312 155.84C236.716 155.754 236.115 155.789 235.569 156.039L236.401 157.858ZM237.025 157.819C237.451 157.881 237.734 158.072 237.95 158.442L239.677 157.434C239.153 156.537 238.34 155.989 237.312 155.84L237.025 157.819ZM237.95 158.442C238.161 158.803 238.283 159.409 238.141 160.392L240.12 160.679C240.295 159.467 240.207 158.341 239.677 157.434L237.95 158.442ZM238.141 160.392C238.046 161.044 237.883 161.513 237.689 161.84L239.407 162.864C239.775 162.246 240 161.504 240.12 160.679L238.141 160.392ZM237.69 161.838C237.489 162.172 237.277 162.356 237.07 162.457L237.946 164.255C238.564 163.954 239.044 163.468 239.405 162.866L237.69 161.838ZM237.076 162.454C236.861 162.557 236.61 162.6 236.292 162.554L236.006 164.534C236.677 164.631 237.333 164.549 237.94 164.258L237.076 162.454ZM236.292 162.554C235.919 162.5 235.759 162.406 235.704 162.36L234.418 163.892C234.862 164.265 235.428 164.45 236.006 164.534L236.292 162.554ZM235.704 162.36C235.526 162.21 235.411 162.071 235.339 161.949L233.615 162.962C233.821 163.314 234.096 163.622 234.418 163.892L235.704 162.36ZM234.62 161.466L234.499 161.448L234.212 163.427L234.334 163.445L234.62 161.466ZM233.496 161.926L233.097 162.597L234.816 163.619L235.215 162.949L233.496 161.926ZM234.1 162.118L232.748 161.923L232.462 163.902L233.813 164.098L234.1 162.118ZM233.595 163.056L234.901 154.033L232.922 153.746L231.615 162.769L233.595 163.056ZM233.768 154.879L235.537 155.135L235.823 153.156L234.055 152.9L233.768 154.879ZM236.538 157.173C236.103 157.11 235.623 157.131 235.18 157.355L236.082 159.139C236.04 159.161 236.069 159.125 236.252 159.152L236.538 157.173ZM235.18 157.355C234.751 157.572 234.451 157.922 234.254 158.314L236.041 159.212C236.066 159.164 236.084 159.142 236.09 159.136C236.095 159.131 236.092 159.135 236.082 159.139L235.18 157.355ZM234.248 158.327C234.074 158.686 233.961 159.105 233.888 159.55L235.861 159.875C235.916 159.542 235.986 159.327 236.047 159.2L234.248 158.327ZM233.885 159.569L233.857 159.76L235.836 160.047L235.864 159.856L233.885 159.569ZM233.857 159.76C233.755 160.463 233.756 161.154 233.979 161.746L235.851 161.041C235.8 160.907 235.755 160.605 235.836 160.047L233.857 159.76ZM233.981 161.751C234.286 162.549 234.985 162.923 235.714 163.029L236.001 161.05C235.863 161.03 235.817 160.999 235.819 161C235.82 161.001 235.828 161.007 235.837 161.018C235.846 161.03 235.849 161.037 235.849 161.037L233.981 161.751ZM235.714 163.029C236.454 163.136 237.096 162.847 237.555 162.31L236.035 161.01C236.011 161.038 235.995 161.051 235.987 161.057C235.981 161.062 235.981 161.06 235.989 161.057C235.997 161.054 236.006 161.052 236.012 161.051C236.018 161.051 236.015 161.052 236.001 161.05L235.714 163.029ZM237.549 162.316C237.994 161.805 238.215 161.117 238.32 160.395L236.34 160.108C236.261 160.654 236.126 160.905 236.04 161.004L237.549 162.316ZM238.32 160.395C238.424 159.678 238.409 158.951 238.113 158.337L236.312 159.207C236.356 159.298 236.42 159.557 236.34 160.108L238.32 160.395ZM238.113 158.337C237.804 157.697 237.255 157.276 236.538 157.173L236.252 159.152C236.275 159.155 236.286 159.159 236.288 159.16C236.289 159.161 236.287 159.16 236.283 159.157C236.279 159.154 236.28 159.154 236.284 159.159C236.288 159.165 236.299 159.179 236.312 159.207L238.113 158.337Z" fill="black" mask="url(#path-18-outside-4_401_1460)"/>
<mask id="path-20-outside-5_401_1460" maskUnits="userSpaceOnUse" x="228.955" y="171.685" width="10.34" height="11.1864" fill="black">
<rect fill="white" x="228.955" y="171.685" width="10.34" height="11.1864"/>
<path d="M233.775 180.377C233.133 180.285 232.603 180.089 232.185 179.792C231.766 179.491 231.475 179.077 231.31 178.552C231.145 178.027 231.118 177.382 231.229 176.616C231.344 175.824 231.571 175.198 231.91 174.738C232.253 174.274 232.68 173.959 233.189 173.792C233.703 173.626 234.275 173.588 234.905 173.679C235.353 173.744 235.733 173.845 236.045 173.98C236.362 174.113 236.633 174.257 236.859 174.412L236.139 175.705C235.877 175.553 235.631 175.424 235.401 175.32C235.172 175.212 234.938 175.14 234.698 175.106C234.389 175.061 234.121 175.097 233.895 175.214C233.67 175.328 233.486 175.522 233.343 175.798C233.201 176.073 233.098 176.429 233.034 176.866C232.972 177.295 232.975 177.659 233.042 177.956C233.11 178.254 233.236 178.488 233.421 178.657C233.606 178.822 233.845 178.925 234.139 178.968C234.506 179.021 234.84 179.02 235.14 178.965C235.441 178.906 235.739 178.807 236.036 178.668L235.817 180.182C235.521 180.313 235.22 180.393 234.911 180.424C234.606 180.458 234.228 180.443 233.775 180.377Z"/>
</mask>
<path d="M233.775 180.377C233.133 180.285 232.603 180.089 232.185 179.792C231.766 179.491 231.475 179.077 231.31 178.552C231.145 178.027 231.118 177.382 231.229 176.616C231.344 175.824 231.571 175.198 231.91 174.738C232.253 174.274 232.68 173.959 233.189 173.792C233.703 173.626 234.275 173.588 234.905 173.679C235.353 173.744 235.733 173.845 236.045 173.98C236.362 174.113 236.633 174.257 236.859 174.412L236.139 175.705C235.877 175.553 235.631 175.424 235.401 175.32C235.172 175.212 234.938 175.14 234.698 175.106C234.389 175.061 234.121 175.097 233.895 175.214C233.67 175.328 233.486 175.522 233.343 175.798C233.201 176.073 233.098 176.429 233.034 176.866C232.972 177.295 232.975 177.659 233.042 177.956C233.11 178.254 233.236 178.488 233.421 178.657C233.606 178.822 233.845 178.925 234.139 178.968C234.506 179.021 234.84 179.02 235.14 178.965C235.441 178.906 235.739 178.807 236.036 178.668L235.817 180.182C235.521 180.313 235.22 180.393 234.911 180.424C234.606 180.458 234.228 180.443 233.775 180.377Z" fill="#ED9C51"/>
<path d="M232.185 179.792L231.6 180.603L231.605 180.607L232.185 179.792ZM231.91 174.738L231.106 174.142L231.105 174.144L231.91 174.738ZM233.189 173.792L232.881 172.841L232.878 172.842L233.189 173.792ZM236.045 173.98L235.646 174.897L235.659 174.903L236.045 173.98ZM236.859 174.412L237.733 174.899L238.176 174.103L237.425 173.587L236.859 174.412ZM236.139 175.705L235.636 176.57L236.517 177.082L237.013 176.192L236.139 175.705ZM235.401 175.32L234.974 176.224L234.981 176.227L234.988 176.231L235.401 175.32ZM233.895 175.214L234.344 176.108L234.355 176.102L233.895 175.214ZM233.421 178.657L232.746 179.395L232.756 179.403L233.421 178.657ZM235.14 178.965L235.321 179.948L235.333 179.946L235.14 178.965ZM236.036 178.668L237.025 178.811L237.291 176.977L235.612 177.762L236.036 178.668ZM235.817 180.182L236.222 181.096L236.727 180.872L236.806 180.325L235.817 180.182ZM234.911 180.424L234.813 179.428L234.806 179.429L234.798 179.43L234.911 180.424ZM233.919 179.388C233.394 179.312 233.023 179.161 232.764 178.977L231.605 180.607C232.183 181.017 232.873 181.257 233.632 181.367L233.919 179.388ZM232.769 178.981C232.538 178.814 232.369 178.587 232.264 178.253L230.356 178.852C230.581 179.568 230.994 180.167 231.6 180.603L232.769 178.981ZM232.264 178.253C232.159 177.917 232.121 177.433 232.219 176.76L230.24 176.473C230.115 177.331 230.132 178.138 230.356 178.852L232.264 178.253ZM232.219 176.76C232.319 176.068 232.505 175.616 232.715 175.331L231.105 174.144C230.637 174.779 230.369 175.579 230.24 176.473L232.219 176.76ZM232.713 175.333C232.943 175.023 233.203 174.84 233.501 174.742L232.878 172.842C232.156 173.078 231.563 173.526 231.106 174.142L232.713 175.333ZM233.498 174.743C233.842 174.632 234.256 174.596 234.762 174.669L235.048 172.69C234.294 172.58 233.564 172.619 232.881 172.841L233.498 174.743ZM234.762 174.669C235.149 174.725 235.438 174.806 235.646 174.897L236.445 173.064C236.029 172.883 235.558 172.763 235.048 172.69L234.762 174.669ZM235.659 174.903C235.927 175.015 236.135 175.128 236.294 175.237L237.425 173.587C237.13 173.386 236.796 173.211 236.432 173.058L235.659 174.903ZM235.985 173.926L235.265 175.219L237.013 176.192L237.733 174.899L235.985 173.926ZM236.642 174.841C236.356 174.675 236.08 174.53 235.815 174.41L234.988 176.231C235.182 176.319 235.398 176.431 235.636 176.57L236.642 174.841ZM235.828 174.416C235.514 174.267 235.184 174.166 234.842 174.116L234.555 176.095C234.692 176.115 234.831 176.157 234.974 176.224L235.828 174.416ZM234.842 174.116C234.373 174.048 233.885 174.093 233.435 174.327L234.355 176.102C234.357 176.101 234.405 176.074 234.555 176.095L234.842 174.116ZM233.446 174.321C232.993 174.549 232.672 174.919 232.455 175.338L234.231 176.257C234.266 176.19 234.296 176.152 234.314 176.133C234.331 176.115 234.341 176.109 234.344 176.108L233.446 174.321ZM232.455 175.338C232.244 175.745 232.118 176.218 232.045 176.723L234.024 177.009C234.078 176.64 234.157 176.401 234.231 176.257L232.455 175.338ZM232.045 176.723C231.972 177.226 231.964 177.721 232.067 178.177L234.018 177.736C233.986 177.596 233.973 177.364 234.024 177.009L232.045 176.723ZM232.067 178.177C232.169 178.63 232.38 179.06 232.746 179.395L234.095 177.918C234.092 177.915 234.05 177.879 234.018 177.736L232.067 178.177ZM232.756 179.403C233.114 179.722 233.547 179.892 233.996 179.957L234.282 177.978C234.144 177.958 234.098 177.921 234.085 177.91L232.756 179.403ZM233.996 179.957C234.448 180.023 234.894 180.027 235.321 179.948L234.959 177.981C234.786 178.013 234.565 178.019 234.282 177.978L233.996 179.957ZM235.333 179.946C235.719 179.87 236.094 179.745 236.459 179.574L235.612 177.762C235.384 177.869 235.163 177.941 234.947 177.983L235.333 179.946ZM235.046 178.525L234.827 180.038L236.806 180.325L237.025 178.811L235.046 178.525ZM235.411 179.267C235.209 179.357 235.011 179.409 234.813 179.428L235.009 181.419C235.428 181.377 235.833 181.268 236.222 181.096L235.411 179.267ZM234.798 179.43C234.609 179.452 234.323 179.446 233.919 179.388L233.632 181.367C234.132 181.44 234.604 181.465 235.025 181.417L234.798 179.43Z" fill="black" mask="url(#path-20-outside-5_401_1460)"/>
<mask id="path-22-outside-6_401_1460" maskUnits="userSpaceOnUse" x="225.386" y="186.387" width="10.7699" height="14.1554" fill="black">
<rect fill="white" x="225.386" y="186.387" width="10.7699" height="14.1554"/>
<path d="M229.626 197.964C228.903 197.86 228.354 197.492 227.98 196.862C227.61 196.228 227.504 195.362 227.663 194.264C227.824 193.155 228.175 192.349 228.718 191.847C229.261 191.342 229.903 191.143 230.645 191.25C230.955 191.295 231.221 191.377 231.445 191.496C231.668 191.615 231.855 191.759 232.004 191.927C232.157 192.095 232.281 192.276 232.375 192.472L232.433 192.48C232.428 192.353 232.425 192.167 232.425 191.922C232.429 191.674 232.45 191.423 232.487 191.168L232.787 189.092L234.562 189.348L233.256 198.372L231.899 198.175L231.678 197.285L231.603 197.274C231.465 197.435 231.3 197.577 231.109 197.7C230.922 197.819 230.706 197.904 230.462 197.955C230.218 198.007 229.939 198.01 229.626 197.964ZM230.451 196.645C230.934 196.715 231.295 196.621 231.533 196.364C231.776 196.103 231.946 195.683 232.041 195.105L232.069 194.914C232.16 194.284 232.133 193.788 231.988 193.428C231.843 193.064 231.508 192.843 230.982 192.767C230.592 192.711 230.262 192.835 229.993 193.139C229.724 193.444 229.544 193.913 229.452 194.547C229.36 195.181 229.401 195.674 229.575 196.027C229.753 196.38 230.045 196.586 230.451 196.645Z"/>
</mask>
<path d="M229.626 197.964C228.903 197.86 228.354 197.492 227.98 196.862C227.61 196.228 227.504 195.362 227.663 194.264C227.824 193.155 228.175 192.349 228.718 191.847C229.261 191.342 229.903 191.143 230.645 191.25C230.955 191.295 231.221 191.377 231.445 191.496C231.668 191.615 231.855 191.759 232.004 191.927C232.157 192.095 232.281 192.276 232.375 192.472L232.433 192.48C232.428 192.353 232.425 192.167 232.425 191.922C232.429 191.674 232.45 191.423 232.487 191.168L232.787 189.092L234.562 189.348L233.256 198.372L231.899 198.175L231.678 197.285L231.603 197.274C231.465 197.435 231.3 197.577 231.109 197.7C230.922 197.819 230.706 197.904 230.462 197.955C230.218 198.007 229.939 198.01 229.626 197.964ZM230.451 196.645C230.934 196.715 231.295 196.621 231.533 196.364C231.776 196.103 231.946 195.683 232.041 195.105L232.069 194.914C232.16 194.284 232.133 193.788 231.988 193.428C231.843 193.064 231.508 192.843 230.982 192.767C230.592 192.711 230.262 192.835 229.993 193.139C229.724 193.444 229.544 193.913 229.452 194.547C229.36 195.181 229.401 195.674 229.575 196.027C229.753 196.38 230.045 196.586 230.451 196.645Z" fill="#ED9C51"/>
<path d="M227.98 196.862L227.116 197.366L227.12 197.372L227.98 196.862ZM228.718 191.847L229.397 192.581L229.399 192.579L228.718 191.847ZM232.004 191.927L231.257 192.592L231.265 192.6L232.004 191.927ZM232.375 192.472L231.474 192.906L231.705 193.385L232.232 193.461L232.375 192.472ZM232.433 192.48L232.29 193.47L233.482 193.642L233.432 192.438L232.433 192.48ZM232.425 191.922L231.425 191.905L231.425 191.914L231.425 191.923L232.425 191.922ZM232.787 189.092L232.931 188.102L231.941 187.959L231.798 188.948L232.787 189.092ZM234.562 189.348L235.552 189.492L235.695 188.502L234.705 188.359L234.562 189.348ZM233.256 198.372L233.112 199.361L234.102 199.505L234.245 198.515L233.256 198.372ZM231.899 198.175L230.928 198.415L231.09 199.068L231.755 199.165L231.899 198.175ZM231.678 197.285L232.649 197.044L232.487 196.391L231.821 196.295L231.678 197.285ZM231.603 197.274L231.746 196.284L231.2 196.205L230.842 196.625L231.603 197.274ZM231.109 197.7L231.646 198.543L231.647 198.542L231.109 197.7ZM231.533 196.364L230.802 195.682L230.8 195.684L231.533 196.364ZM232.041 195.105L233.028 195.268L233.029 195.258L233.031 195.249L232.041 195.105ZM231.988 193.428L231.058 193.797L231.06 193.802L231.988 193.428ZM229.575 196.027L228.678 196.469L228.682 196.476L229.575 196.027ZM229.769 196.975C229.347 196.914 229.061 196.723 228.84 196.351L227.12 197.372C227.648 198.261 228.46 198.806 229.483 198.954L229.769 196.975ZM228.844 196.358C228.633 195.997 228.511 195.391 228.653 194.407L226.674 194.121C226.498 195.333 226.587 196.459 227.116 197.366L228.844 196.358ZM228.653 194.407C228.797 193.413 229.09 192.865 229.397 192.581L228.039 191.113C227.261 191.833 226.851 192.897 226.674 194.121L228.653 194.407ZM229.399 192.579C229.718 192.283 230.056 192.175 230.502 192.24L230.789 190.261C229.751 190.11 228.804 190.401 228.036 191.116L229.399 192.579ZM230.502 192.24C230.723 192.272 230.873 192.325 230.974 192.379L231.915 190.614C231.569 190.429 231.187 190.318 230.789 190.261L230.502 192.24ZM230.974 192.379C231.107 192.449 231.196 192.523 231.257 192.592L232.751 191.261C232.513 190.995 232.23 190.782 231.915 190.614L230.974 192.379ZM231.265 192.6C231.356 192.7 231.424 192.802 231.474 192.906L233.276 192.037C233.138 191.751 232.958 191.489 232.743 191.253L231.265 192.6ZM232.232 193.461L232.29 193.47L232.576 191.49L232.518 191.482L232.232 193.461ZM233.432 192.438C233.428 192.332 233.425 192.163 233.425 191.922L231.425 191.923C231.425 192.171 231.428 192.373 231.434 192.522L233.432 192.438ZM233.425 191.94C233.428 191.735 233.445 191.526 233.477 191.311L231.497 191.024C231.454 191.319 231.43 191.613 231.425 191.905L233.425 191.94ZM233.477 191.311L233.777 189.235L231.798 188.948L231.497 191.024L233.477 191.311ZM232.644 190.081L234.419 190.338L234.705 188.359L232.931 188.102L232.644 190.081ZM233.572 189.205L232.266 198.228L234.245 198.515L235.552 189.492L233.572 189.205ZM233.399 197.382L232.042 197.185L231.755 199.165L233.112 199.361L233.399 197.382ZM232.869 197.935L232.649 197.044L230.707 197.525L230.928 198.415L232.869 197.935ZM231.821 196.295L231.746 196.284L231.46 198.263L231.535 198.274L231.821 196.295ZM230.842 196.625C230.773 196.706 230.684 196.784 230.571 196.857L231.647 198.542C231.916 198.37 232.157 198.165 232.364 197.923L230.842 196.625ZM230.572 196.856C230.498 196.903 230.398 196.947 230.256 196.977L230.668 198.934C231.015 198.861 231.346 198.734 231.646 198.543L230.572 196.856ZM230.256 196.977C230.153 196.999 229.996 197.008 229.769 196.975L229.483 198.954C229.882 199.012 230.283 199.015 230.668 198.934L230.256 196.977ZM230.307 197.635C230.978 197.732 231.724 197.629 232.267 197.043L230.8 195.684C230.806 195.677 230.815 195.67 230.826 195.664C230.836 195.658 230.84 195.657 230.832 195.659C230.814 195.664 230.742 195.677 230.594 195.655L230.307 197.635ZM232.265 197.045C232.703 196.575 232.919 195.928 233.028 195.268L231.054 194.942C230.972 195.439 230.849 195.631 230.802 195.682L232.265 197.045ZM233.031 195.249L233.058 195.057L231.079 194.771L231.051 194.962L233.031 195.249ZM233.058 195.057C233.161 194.352 233.156 193.652 232.916 193.054L231.06 193.802C231.11 193.925 231.159 194.215 231.079 194.771L233.058 195.057ZM232.917 193.059C232.595 192.247 231.863 191.884 231.126 191.778L230.839 193.757C231.002 193.781 231.067 193.817 231.079 193.825C231.084 193.828 231.079 193.826 231.071 193.816C231.067 193.812 231.064 193.807 231.062 193.803C231.061 193.801 231.06 193.8 231.059 193.799C231.059 193.798 231.059 193.798 231.059 193.797C231.059 193.797 231.058 193.797 231.058 193.797L232.917 193.059ZM231.126 191.778C230.39 191.671 229.728 191.929 229.244 192.477L230.742 193.801C230.765 193.776 230.781 193.763 230.788 193.758C230.795 193.753 230.797 193.753 230.794 193.754C230.791 193.755 230.79 193.755 230.794 193.754C230.799 193.754 230.813 193.753 230.839 193.757L231.126 191.778ZM229.244 192.477C228.791 192.989 228.567 193.679 228.462 194.404L230.441 194.69C230.52 194.147 230.657 193.898 230.742 193.801L229.244 192.477ZM228.462 194.404C228.358 195.123 228.375 195.853 228.678 196.469L230.472 195.585C230.428 195.495 230.362 195.239 230.441 194.69L228.462 194.404ZM228.682 196.476C229.013 197.134 229.592 197.531 230.307 197.635L230.594 195.655C230.558 195.65 230.535 195.643 230.522 195.639C230.51 195.634 230.505 195.631 230.504 195.63C230.503 195.629 230.5 195.627 230.496 195.621C230.491 195.616 230.481 195.602 230.468 195.578L228.682 196.476Z" fill="black" mask="url(#path-22-outside-6_401_1460)"/>
<g filter="url(#filter3_d_401_1460)">
<path d="M147.48 237.175L141.256 238.781L136.972 222.182C136.403 219.981 134.984 218.096 133.026 216.941C131.068 215.786 128.731 215.457 126.53 216.025L109.931 220.309L108.325 214.084C107.614 211.333 105.84 208.976 103.393 207.533C100.945 206.089 98.0242 205.677 95.2727 206.388C92.5213 207.098 90.1646 208.872 88.7212 211.319C87.2778 213.767 86.8658 216.688 87.5759 219.439L89.1824 225.664L72.5835 229.948C70.3823 230.516 68.497 231.935 67.3423 233.894C66.1875 235.852 65.858 238.188 66.4261 240.39L70.4959 256.159L76.7205 254.552C82.9451 252.946 89.21 256.64 90.8165 262.865C92.423 269.089 88.7285 275.354 82.5039 276.961L76.2793 278.567L80.3492 294.336C80.9173 296.537 82.3365 298.423 84.2947 299.577C86.2528 300.732 88.5895 301.062 90.7907 300.494L106.56 296.424L104.953 290.199C103.347 283.975 107.041 277.71 113.266 276.103C119.49 274.497 125.755 278.191 127.362 284.416L128.968 290.64L144.737 286.57C146.938 286.002 148.824 284.583 149.978 282.625C151.133 280.667 151.463 278.33 150.895 276.129L146.611 259.53L152.835 257.924C155.587 257.213 157.943 255.439 159.387 252.992C160.83 250.544 161.242 247.623 160.532 244.872C159.822 242.12 158.048 239.764 155.6 238.32C153.152 236.877 150.232 236.465 147.48 237.175Z" fill="#ED9C51"/>
<path d="M140.771 238.906L140.896 239.39L141.381 239.266L147.605 237.659C150.228 236.982 153.013 237.375 155.346 238.751C157.68 240.127 159.371 242.374 160.048 244.997C160.725 247.62 160.332 250.404 158.956 252.738C157.58 255.071 155.333 256.762 152.71 257.439L146.486 259.046L146.002 259.171L146.126 259.655L150.411 276.254C150.945 278.327 150.635 280.527 149.548 282.371C148.46 284.215 146.685 285.551 144.612 286.086L129.327 290.031L127.846 284.291C126.17 277.799 119.633 273.943 113.141 275.619C106.649 277.295 102.793 283.832 104.469 290.324L105.951 296.065L90.6657 300.009C88.593 300.544 86.3926 300.234 84.5486 299.147C82.7047 298.059 81.3683 296.284 80.8333 294.211L76.8884 278.926L82.6289 277.445C89.1209 275.769 92.9762 269.232 91.3006 262.74C89.6251 256.248 83.0875 252.392 76.5955 254.068L70.8551 255.549L66.9102 240.265C66.3752 238.192 66.6856 235.992 67.773 234.148C68.8604 232.304 70.6357 230.967 72.7085 230.432L89.3074 226.148L89.7915 226.023L89.6666 225.539L88.0601 219.315C87.3831 216.691 87.7758 213.907 89.1519 211.573C90.528 209.24 92.7746 207.549 95.3977 206.872C98.0207 206.195 100.805 206.588 103.139 207.964C105.472 209.34 107.163 211.586 107.84 214.209L109.447 220.434L109.572 220.918L110.056 220.793L126.655 216.509C128.728 215.974 130.928 216.285 132.772 217.372C134.616 218.459 135.952 220.235 136.487 222.307L140.771 238.906Z" stroke="black"/>
</g>
<defs>
<filter id="filter0_d_401_1460" x="205.625" y="104.625" width="147.829" height="147.829" filterUnits="userSpaceOnUse" color-interpolation-filters="sRGB">
<feFlood flood-opacity="0" result="BackgroundImageFix"/>
<feColorMatrix in="SourceAlpha" type="matrix" values="0 0 0 0 0 0 0 0 0 0 0 0 0 0 0 0 0 0 127 0" result="hardAlpha"/>
<feOffset dy="4"/>
<feGaussianBlur stdDeviation="2"/>
<feComposite in2="hardAlpha" operator="out"/>
<feColorMatrix type="matrix" values="0 0 0 0 0 0 0 0 0 0 0 0 0 0 0 0 0 0 0.25 0"/>
<feBlend mode="normal" in2="BackgroundImageFix" result="effect1_dropShadow_401_1460"/>
<feBlend mode="normal" in="SourceGraphic" in2="effect1_dropShadow_401_1460" result="shape"/>
</filter>
<filter id="filter1_d_401_1460" x="45" y="31" width="110" height="111" filterUnits="userSpaceOnUse" color-interpolation-filters="sRGB">
<feFlood flood-opacity="0" result="BackgroundImageFix"/>
<feColorMatrix in="SourceAlpha" type="matrix" values="0 0 0 0 0 0 0 0 0 0 0 0 0 0 0 0 0 0 127 0" result="hardAlpha"/>
<feOffset dy="4"/>
<feGaussianBlur stdDeviation="2"/>
<feComposite in2="hardAlpha" operator="out"/>
<feColorMatrix type="matrix" values="0 0 0 0 0 0 0 0 0 0 0 0 0 0 0 0 0 0 0.25 0"/>
<feBlend mode="normal" in2="BackgroundImageFix" result="effect1_dropShadow_401_1460"/>
<feBlend mode="normal" in="SourceGraphic" in2="effect1_dropShadow_401_1460" result="shape"/>
</filter>
<filter id="filter2_d_401_1460" x="78" y="57" width="110" height="111" filterUnits="userSpaceOnUse" color-interpolation-filters="sRGB">
<feFlood flood-opacity="0" result="BackgroundImageFix"/>
<feColorMatrix in="SourceAlpha" type="matrix" values="0 0 0 0 0 0 0 0 0 0 0 0 0 0 0 0 0 0 127 0" result="hardAlpha"/>
<feOffset dy="4"/>
<feGaussianBlur stdDeviation="2"/>
<feComposite in2="hardAlpha" operator="out"/>
<feColorMatrix type="matrix" values="0 0 0 0 0 0 0 0 0 0 0 0 0 0 0 0 0 0 0.25 0"/>
<feBlend mode="normal" in2="BackgroundImageFix" result="effect1_dropShadow_401_1460"/>
<feBlend mode="normal" in="SourceGraphic" in2="effect1_dropShadow_401_1460" result="shape"/>
</filter>
<filter id="filter3_d_401_1460" x="62.1541" y="206.048" width="102.718" height="102.718" filterUnits="userSpaceOnUse" color-interpolation-filters="sRGB">
<feFlood flood-opacity="0" result="BackgroundImageFix"/>
<feColorMatrix in="SourceAlpha" type="matrix" values="0 0 0 0 0 0 0 0 0 0 0 0 0 0 0 0 0 0 127 0" result="hardAlpha"/>
<feOffset dy="4"/>
<feGaussianBlur stdDeviation="2"/>
<feComposite in2="hardAlpha" operator="out"/>
<feColorMatrix type="matrix" values="0 0 0 0 0 0 0 0 0 0 0 0 0 0 0 0 0 0 0.25 0"/>
<feBlend mode="normal" in2="BackgroundImageFix" result="effect1_dropShadow_401_1460"/>
<feBlend mode="normal" in="SourceGraphic" in2="effect1_dropShadow_401_1460" result="shape"/>
</filter>
</defs>
</svg>
