<svg width="384" height="345" viewBox="0 0 384 345" fill="none" xmlns="http://www.w3.org/2000/svg">
<rect width="384" height="345" fill="#FEF3CD" fill-opacity="0.61"/>
<g filter="url(#filter0_d_404_1549)">
<rect x="95" y="75" width="193" height="225" rx="12" fill="white"/>
<rect x="95.5" y="75.5" width="192" height="224" rx="11.5" stroke="#545454"/>
</g>
<rect x="198.5" y="244.5" width="150" height="6" fill="#ED9C51" stroke="black"/>
<rect x="198.5" y="222.5" width="150" height="6" fill="#ED9C51" stroke="black"/>
<rect x="198.5" y="200.5" width="150" height="6" fill="#ED9C51" stroke="black"/>
<line x1="65" y1="114" x2="205" y2="114" stroke="black" stroke-width="2"/>
<line x1="65" y1="46" x2="205" y2="46" stroke="black" stroke-width="2"/>
<rect x="206" y="42" width="7" height="7" fill="white" stroke="black" stroke-width="2"/>
<rect x="206" y="110" width="7" height="7" fill="white" stroke="black" stroke-width="2"/>
<rect x="57" y="110" width="7" height="7" fill="white" stroke="black" stroke-width="2"/>
<rect x="57" y="42" width="7" height="7" fill="white" stroke="black" stroke-width="2"/>
<line x1="60" y1="50" x2="60" y2="109" stroke="black" stroke-width="2"/>
<line x1="211" y1="50" x2="211" y2="109" stroke="black" stroke-width="2"/>
<mask id="path-15-inside-1_404_1549" fill="white">
<path d="M236.562 139.974L234.975 141.56C234.836 141.7 234.67 141.81 234.488 141.886C234.306 141.962 234.11 142.001 233.913 142.001C233.715 142.001 233.52 141.962 233.338 141.886C233.155 141.81 232.99 141.7 232.85 141.56L225.779 134.489L223.375 140.758L223.359 140.8C223.206 141.157 222.951 141.461 222.626 141.674C222.301 141.887 221.921 142 221.533 141.998H221.435C221.03 141.981 220.64 141.84 220.318 141.595C219.996 141.349 219.757 141.01 219.634 140.623L213.1 120.615C212.985 120.264 212.97 119.889 213.056 119.531C213.141 119.173 213.324 118.845 213.585 118.585C213.845 118.324 214.173 118.141 214.531 118.055C214.89 117.97 215.265 117.985 215.615 118.1L235.625 124.633C236.008 124.761 236.343 125.002 236.586 125.323C236.829 125.645 236.97 126.032 236.989 126.435C237.008 126.838 236.905 127.237 236.693 127.58C236.481 127.923 236.17 128.194 235.802 128.358L235.76 128.374L229.49 130.783L236.562 137.852C236.843 138.134 237.001 138.515 237.001 138.913C237.001 139.311 236.843 139.692 236.562 139.974Z"/>
</mask>
<path d="M236.562 139.974L234.975 141.56C234.836 141.7 234.67 141.81 234.488 141.886C234.306 141.962 234.11 142.001 233.913 142.001C233.715 142.001 233.52 141.962 233.338 141.886C233.155 141.81 232.99 141.7 232.85 141.56L225.779 134.489L223.375 140.758L223.359 140.8C223.206 141.157 222.951 141.461 222.626 141.674C222.301 141.887 221.921 142 221.533 141.998H221.435C221.03 141.981 220.64 141.84 220.318 141.595C219.996 141.349 219.757 141.01 219.634 140.623L213.1 120.615C212.985 120.264 212.97 119.889 213.056 119.531C213.141 119.173 213.324 118.845 213.585 118.585C213.845 118.324 214.173 118.141 214.531 118.055C214.89 117.97 215.265 117.985 215.615 118.1L235.625 124.633C236.008 124.761 236.343 125.002 236.586 125.323C236.829 125.645 236.97 126.032 236.989 126.435C237.008 126.838 236.905 127.237 236.693 127.58C236.481 127.923 236.17 128.194 235.802 128.358L235.76 128.374L229.49 130.783L236.562 137.852C236.843 138.134 237.001 138.515 237.001 138.913C237.001 139.311 236.843 139.692 236.562 139.974Z" fill="#ED9C51" stroke="black" stroke-width="2" mask="url(#path-15-inside-1_404_1549)"/>
<mask id="path-16-inside-2_404_1549" fill="white">
<path d="M323.623 204.819L322.04 211.652C321.985 211.902 321.987 212.161 322.045 212.41C322.103 212.659 322.216 212.892 322.376 213.091C322.536 213.291 322.738 213.452 322.968 213.564C323.198 213.675 323.451 213.734 323.706 213.735C323.825 213.748 323.945 213.748 324.065 213.735L330.94 212.152L344.14 199.002L336.773 191.652L323.623 204.819Z"/>
</mask>
<path d="M323.623 204.819L322.04 211.652C321.985 211.902 321.987 212.161 322.045 212.41C322.103 212.659 322.216 212.892 322.376 213.091C322.536 213.291 322.738 213.452 322.968 213.564C323.198 213.675 323.451 213.734 323.706 213.735C323.825 213.748 323.945 213.748 324.065 213.735L330.94 212.152L344.14 199.002L336.773 191.652L323.623 204.819Z" fill="#ED9C51" stroke="black" stroke-width="2" mask="url(#path-16-inside-2_404_1549)"/>
<mask id="path-17-inside-3_404_1549" fill="white">
<path d="M348.29 192.419L343.373 187.502C343.05 187.181 342.613 187 342.157 187C341.701 187 341.263 187.181 340.94 187.502L338.207 190.235L345.565 197.594L348.298 194.86C348.458 194.7 348.585 194.509 348.671 194.299C348.757 194.089 348.801 193.865 348.8 193.638C348.8 193.411 348.754 193.187 348.667 192.978C348.579 192.768 348.451 192.578 348.29 192.419Z"/>
</mask>
<path d="M348.29 192.419L343.373 187.502C343.05 187.181 342.613 187 342.157 187C341.701 187 341.263 187.181 340.94 187.502L338.207 190.235L345.565 197.594L348.298 194.86C348.458 194.7 348.585 194.509 348.671 194.299C348.757 194.089 348.801 193.865 348.8 193.638C348.8 193.411 348.754 193.187 348.667 192.978C348.579 192.768 348.451 192.578 348.29 192.419Z" fill="#ED9C51" stroke="black" stroke-width="2" mask="url(#path-17-inside-3_404_1549)"/>
<defs>
<filter id="filter0_d_404_1549" x="91" y="75" width="201" height="233" filterUnits="userSpaceOnUse" color-interpolation-filters="sRGB">
<feFlood flood-opacity="0" result="BackgroundImageFix"/>
<feColorMatrix in="SourceAlpha" type="matrix" values="0 0 0 0 0 0 0 0 0 0 0 0 0 0 0 0 0 0 127 0" result="hardAlpha"/>
<feOffset dy="4"/>
<feGaussianBlur stdDeviation="2"/>
<feComposite in2="hardAlpha" operator="out"/>
<feColorMatrix type="matrix" values="0 0 0 0 0 0 0 0 0 0 0 0 0 0 0 0 0 0 0.25 0"/>
<feBlend mode="normal" in2="BackgroundImageFix" result="effect1_dropShadow_404_1549"/>
<feBlend mode="normal" in="SourceGraphic" in2="effect1_dropShadow_404_1549" result="shape"/>
</filter>
</defs>
</svg>
