<svg width="384" height="345" viewBox="0 0 384 345" fill="none" xmlns="http://www.w3.org/2000/svg">
<rect width="384" height="345" fill="#EEA1FB" fill-opacity="0.2"/>
<g filter="url(#filter0_d_408_1568)">
<rect x="84" y="46" width="116" height="120" rx="12" fill="white"/>
<rect x="84.5" y="46.5" width="115" height="119" rx="11.5" stroke="#545454"/>
</g>
<rect x="106.5" y="125.5" width="74" height="6" fill="#ED9C51" stroke="black"/>
<rect x="106.5" y="103.5" width="74" height="6" fill="#ED9C51" stroke="black"/>
<rect x="106.5" y="81.5" width="74" height="6" fill="#ED9C51" stroke="black"/>
<mask id="path-7-inside-1_408_1568" fill="white">
<path d="M269.002 240.003C273.246 240.003 277.316 238.317 280.317 235.316C283.318 232.316 285.004 228.245 285.004 224.002C285.004 219.758 283.318 215.688 280.317 212.687C277.316 209.686 273.246 208 269.002 208C264.759 208 260.688 209.686 257.688 212.687C254.687 215.688 253.001 219.758 253.001 224.002C253.001 228.245 254.687 232.316 257.688 235.316C260.688 238.317 264.759 240.003 269.002 240.003ZM305.006 240.003C308.189 240.003 311.241 238.739 313.492 236.488C315.743 234.237 317.007 231.185 317.007 228.002C317.007 224.819 315.743 221.767 313.492 219.516C311.241 217.265 308.189 216.001 305.006 216.001C301.823 216.001 298.771 217.265 296.52 219.516C294.269 221.767 293.005 224.819 293.005 228.002C293.005 231.185 294.269 234.237 296.52 236.488C298.771 238.739 301.823 240.003 305.006 240.003ZM255.001 248.004C249.48 248.004 245 252.484 245 258.005C245 258.005 245 276.007 269.002 276.007C288.028 276.007 291.973 264.694 292.789 260.005C293.005 258.781 293.005 258.005 293.005 258.005C293.005 252.484 288.524 248.004 283.004 248.004H255.001ZM300.974 260.805C300.958 261.125 300.926 261.504 300.878 261.941C300.436 265.24 299.29 268.406 297.517 271.222C299.637 271.71 302.11 272.006 304.998 272.006C325 272.006 325 258.005 325 258.005C325 252.484 320.52 248.004 314.999 248.004H297.965C299.885 250.868 300.998 254.301 300.998 258.005V260.005L300.974 260.805Z"/>
</mask>
<path d="M269.002 240.003C273.246 240.003 277.316 238.317 280.317 235.316C283.318 232.316 285.004 228.245 285.004 224.002C285.004 219.758 283.318 215.688 280.317 212.687C277.316 209.686 273.246 208 269.002 208C264.759 208 260.688 209.686 257.688 212.687C254.687 215.688 253.001 219.758 253.001 224.002C253.001 228.245 254.687 232.316 257.688 235.316C260.688 238.317 264.759 240.003 269.002 240.003ZM305.006 240.003C308.189 240.003 311.241 238.739 313.492 236.488C315.743 234.237 317.007 231.185 317.007 228.002C317.007 224.819 315.743 221.767 313.492 219.516C311.241 217.265 308.189 216.001 305.006 216.001C301.823 216.001 298.771 217.265 296.52 219.516C294.269 221.767 293.005 224.819 293.005 228.002C293.005 231.185 294.269 234.237 296.52 236.488C298.771 238.739 301.823 240.003 305.006 240.003ZM255.001 248.004C249.48 248.004 245 252.484 245 258.005C245 258.005 245 276.007 269.002 276.007C288.028 276.007 291.973 264.694 292.789 260.005C293.005 258.781 293.005 258.005 293.005 258.005C293.005 252.484 288.524 248.004 283.004 248.004H255.001ZM300.974 260.805C300.958 261.125 300.926 261.504 300.878 261.941C300.436 265.24 299.29 268.406 297.517 271.222C299.637 271.71 302.11 272.006 304.998 272.006C325 272.006 325 258.005 325 258.005C325 252.484 320.52 248.004 314.999 248.004H297.965C299.885 250.868 300.998 254.301 300.998 258.005V260.005L300.974 260.805Z" fill="#ED9C51" stroke="black" stroke-width="2" mask="url(#path-7-inside-1_408_1568)"/>
<g filter="url(#filter1_d_408_1568)">
<rect x="45" y="71" width="116" height="120" rx="12" fill="white"/>
<rect x="45.5" y="71.5" width="115" height="119" rx="11.5" stroke="#545454"/>
</g>
<rect x="67.5" y="150.5" width="74" height="6" fill="#ED9C51" stroke="black"/>
<rect x="67.5" y="128.5" width="74" height="6" fill="#ED9C51" stroke="black"/>
<rect x="67.5" y="106.5" width="74" height="6" fill="#ED9C51" stroke="black"/>
<path d="M159.999 238L159.195 237.405L159.195 237.405L159.999 238ZM237.998 228.981C237.988 228.429 237.532 227.99 236.98 228L227.982 228.167C227.429 228.177 226.99 228.633 227 229.185C227.011 229.738 227.467 230.177 228.019 230.167L236.017 230.018L236.166 238.017C236.176 238.569 236.632 239.009 237.184 238.998C237.736 238.988 238.175 238.532 238.165 237.98L237.998 228.981ZM103.521 199.295C103.111 201.251 103.132 204.109 103.507 207.446C103.885 210.808 104.633 214.736 105.729 218.871C107.918 227.13 111.519 236.296 116.417 243.458C121.294 250.59 127.612 255.949 135.273 256.101C142.938 256.252 151.487 251.182 160.802 238.595L159.195 237.405C150.009 249.818 141.994 254.233 135.313 254.101C128.627 253.969 122.817 249.274 118.068 242.329C113.339 235.414 109.814 226.48 107.662 218.359C106.587 214.304 105.86 210.473 105.494 207.223C105.126 203.949 105.135 201.345 105.479 199.705L103.521 199.295ZM160.802 238.595C165.401 232.38 169.168 228.513 172.324 226.337C175.461 224.175 177.91 223.736 179.962 224.209C182.064 224.693 183.97 226.181 185.902 228.347C187.836 230.517 189.661 233.203 191.694 235.968C195.669 241.371 200.417 247.055 207.741 247.576C215.036 248.094 224.444 243.47 237.719 229.694L236.279 228.306C223.054 242.03 214.213 246.031 207.883 245.581C201.583 245.133 197.33 240.254 193.305 234.782C191.339 232.109 189.413 229.28 187.394 227.016C185.372 224.749 183.122 222.885 180.411 222.26C177.651 221.624 174.631 222.317 171.189 224.69C167.767 227.049 163.846 231.12 159.195 237.405L160.802 238.595Z" fill="black"/>
<defs>
<filter id="filter0_d_408_1568" x="80" y="46" width="124" height="128" filterUnits="userSpaceOnUse" color-interpolation-filters="sRGB">
<feFlood flood-opacity="0" result="BackgroundImageFix"/>
<feColorMatrix in="SourceAlpha" type="matrix" values="0 0 0 0 0 0 0 0 0 0 0 0 0 0 0 0 0 0 127 0" result="hardAlpha"/>
<feOffset dy="4"/>
<feGaussianBlur stdDeviation="2"/>
<feComposite in2="hardAlpha" operator="out"/>
<feColorMatrix type="matrix" values="0 0 0 0 0 0 0 0 0 0 0 0 0 0 0 0 0 0 0.25 0"/>
<feBlend mode="normal" in2="BackgroundImageFix" result="effect1_dropShadow_408_1568"/>
<feBlend mode="normal" in="SourceGraphic" in2="effect1_dropShadow_408_1568" result="shape"/>
</filter>
<filter id="filter1_d_408_1568" x="41" y="71" width="124" height="128" filterUnits="userSpaceOnUse" color-interpolation-filters="sRGB">
<feFlood flood-opacity="0" result="BackgroundImageFix"/>
<feColorMatrix in="SourceAlpha" type="matrix" values="0 0 0 0 0 0 0 0 0 0 0 0 0 0 0 0 0 0 127 0" result="hardAlpha"/>
<feOffset dy="4"/>
<feGaussianBlur stdDeviation="2"/>
<feComposite in2="hardAlpha" operator="out"/>
<feColorMatrix type="matrix" values="0 0 0 0 0 0 0 0 0 0 0 0 0 0 0 0 0 0 0.25 0"/>
<feBlend mode="normal" in2="BackgroundImageFix" result="effect1_dropShadow_408_1568"/>
<feBlend mode="normal" in="SourceGraphic" in2="effect1_dropShadow_408_1568" result="shape"/>
</filter>
</defs>
</svg>
