<svg width="231" height="239" viewBox="0 0 231 239" fill="none" xmlns="http://www.w3.org/2000/svg">
<path d="M149.109 182.999C149.109 194.8 147.081 208.46 143.568 219.704C142.719 222.419 143.027 225.987 143.142 228.845C143.22 230.8 149.504 225.853 150.814 225.198C159.896 220.657 170.914 214.778 181.315 214.542C187.344 214.405 205.437 214.542 199.407 214.542" stroke="#172554" stroke-width="18" stroke-linecap="round"/>
<path d="M9.93359 41.2521C53.6997 57.6644 96.5521 71.7511 143.928 72.6125C166.131 73.0162 183.505 68.554 199.403 52.6559C206.745 45.3137 211.647 37.6845 213.539 27.4131C216.271 12.5807 197.983 7.63716 186.336 9.4165C170.548 11.8285 171.185 38.5256 176.952 48.7358C187.282 67.0256 207.021 78.6699 215.142 98.568C222.176 115.801 223.541 140.195 217.281 157.725C210.907 175.57 196.603 182.116 182.06 192.234C169.72 200.817 160.485 211.433 149.986 221.931" stroke="#172554" stroke-width="18" stroke-linecap="round"/>
</svg>
