<svg width="18" height="24" viewBox="0 0 18 24" fill="none" xmlns="http://www.w3.org/2000/svg">
<path d="M11.5262 13.8954L5.04324 15.6962L4.14844 15.9994C3.65969 16.165 3.37722 16.6753 3.49636 17.1774L4.77084 22.5482C4.91346 23.1493 5.56149 23.4785 6.13103 23.2393L8.29963 22.3286C8.50399 22.2428 8.67404 22.0915 8.78307 21.8985L11.0823 17.8291L12.6364 15.3974C13.1304 14.6245 12.41 13.6499 11.5262 13.8954Z" fill="#4FB1F8"/>
<path fill-rule="evenodd" clip-rule="evenodd" d="M17.2304 8.48026C18.113 7.36815 17.6929 5.74607 16.4116 5.31896L16.0432 5.19618L3.04321 0.196148L2.56012 0.0664417C1.11092 -0.322658 -0.281574 1.06066 0.0492062 2.56083L2.46029 13.4957C2.5406 13.8599 2.86339 14.1192 3.23635 14.1192V14.1192C3.30729 14.1192 3.37791 14.1097 3.44633 14.091L9.7457 12.3652L14.6011 11.134C15.0259 11.0262 15.4036 10.7819 15.676 10.4387L17.2304 8.48026Z" fill="#ED9C51"/>
</svg>
