<svg width="84" height="32" viewBox="0 0 84 32" fill="none" xmlns="http://www.w3.org/2000/svg">
<circle cx="16" cy="16" r="15" fill="#D9D9D9" stroke="white" stroke-width="2"/>
<path fill-rule="evenodd" clip-rule="evenodd" d="M25.2304 13.4803C26.113 12.3681 25.6929 10.7461 24.4116 10.319L24.0432 10.1962L11.0432 5.19615L10.5601 5.06644C9.11092 4.67734 7.71843 6.06066 8.04921 7.56083L10.4603 18.4957C10.5406 18.8599 10.8634 19.1192 11.2363 19.1192V19.1192C11.3073 19.1192 11.3779 19.1097 11.4463 19.091L17.7457 17.3652L22.6011 16.134C23.0259 16.0262 23.4036 15.7819 23.676 15.4387L25.2304 13.4803Z" fill="black" fill-opacity="0.25"/>
<path d="M19.5262 18.8953L13.0432 20.6961L12.1484 20.9993C11.6597 21.1649 11.3772 21.6752 11.4964 22.1773L12.7708 27.5482C12.9135 28.1492 13.5615 28.4785 14.131 28.2393L16.2996 27.3285C16.504 27.2427 16.674 27.0914 16.7831 26.8985L19.0823 22.829L20.6364 20.3974C21.1304 19.6245 20.41 18.6498 19.5262 18.8953Z" fill="black" fill-opacity="0.25"/>
<circle cx="42" cy="16" r="15" fill="#A1D5FB" stroke="white" stroke-width="2"/>
<path fill-rule="evenodd" clip-rule="evenodd" d="M51.2304 13.4803C52.113 12.3681 51.6929 10.7461 50.4116 10.319L50.0432 10.1962L37.0432 5.19615L36.5601 5.06644C35.1109 4.67734 33.7184 6.06066 34.0492 7.56083L36.4603 18.4957C36.5406 18.8599 36.8634 19.1192 37.2363 19.1192V19.1192C37.3073 19.1192 37.3779 19.1097 37.4463 19.091L43.7457 17.3652L48.6011 16.134C49.0259 16.0262 49.4036 15.7819 49.676 15.4387L51.2304 13.4803Z" fill="#4FB1F8"/>
<path d="M45.5262 18.8953L39.0432 20.6961L38.1484 20.9993C37.6597 21.1649 37.3772 21.6752 37.4964 22.1773L38.7708 27.5482C38.9135 28.1492 39.5615 28.4785 40.131 28.2393L42.2996 27.3285C42.504 27.2427 42.674 27.0914 42.7831 26.8985L45.0823 22.829L46.6364 20.3974C47.1304 19.6245 46.41 18.6498 45.5262 18.8953Z" fill="#4FB1F8"/>
<circle cx="68" cy="16" r="15" fill="#F2D4FD" stroke="white" stroke-width="2"/>
<path fill-rule="evenodd" clip-rule="evenodd" d="M77.2304 13.4803C78.113 12.3681 77.6929 10.7461 76.4116 10.319L76.0432 10.1962L63.0432 5.19615L62.5601 5.06644C61.1109 4.67734 59.7184 6.06066 60.0492 7.56083L62.4603 18.4957C62.5406 18.8599 62.8634 19.1192 63.2363 19.1192V19.1192C63.3073 19.1192 63.3779 19.1097 63.4463 19.091L69.7457 17.3652L74.6011 16.134C75.0259 16.0262 75.4036 15.7819 75.676 15.4387L77.2304 13.4803Z" fill="#C59BFB"/>
<path d="M71.5262 18.8953L65.0432 20.6961L64.1484 20.9993C63.6597 21.1649 63.3772 21.6752 63.4964 22.1773L64.7708 27.5482C64.9135 28.1492 65.5615 28.4785 66.131 28.2393L68.2996 27.3285C68.504 27.2427 68.674 27.0914 68.7831 26.8985L71.0823 22.829L72.6364 20.3974C73.1304 19.6245 72.41 18.6498 71.5262 18.8953Z" fill="#C59BFB"/>
</svg>
