<svg width="84" height="84" viewBox="0 0 84 84" fill="none" xmlns="http://www.w3.org/2000/svg">
<path fill-rule="evenodd" clip-rule="evenodd" d="M42.1668 0.345703C19.1551 0.345703 0.500828 19 0.500828 42.0127C0.489109 48.9443 2.21372 55.7695 5.52231 61.8623L0.641453 79.0244C-0.139797 81.7705 2.39927 84.3105 5.14731 83.5293L22.3075 78.6494C28.2137 81.8584 34.9793 83.6787 42.1668 83.6787C65.1805 83.6787 83.8348 65.0244 83.8348 42.0127C83.8348 19 65.1805 0.345703 42.1668 0.345703ZM54.45 24.8721C56.5184 22.4639 59.9305 21.834 62.6024 23.3672C67.7 26.2939 66.4442 34.166 60.6532 35.5791L44.6336 39.4873C44.7196 39.7871 44.7723 40.1016 44.7879 40.4258C44.8348 41.3789 44.5594 42.2754 44.0555 43.0078L58.5321 54.3877C62.3582 57.3945 61.9305 63.4688 57.7079 66.1133C53.8309 68.541 48.8465 66.709 47.5184 62.3662L42.0692 44.5703C41.6688 44.7227 41.2391 44.8164 40.7879 44.8398C39.7547 44.8945 38.7918 44.5732 38.0282 43.9961L29.1375 54.3486C26.0438 57.9502 20.3524 56.7754 19.077 52.2715C18.1375 48.958 20.1747 45.4541 23.5125 44.6396L36.45 41.4834C36.411 41.2842 36.3836 41.0801 36.3739 40.8721C36.3153 39.708 36.7391 38.6299 37.4715 37.8301L26.6141 29.2939C23.1161 26.5449 24.1571 20.8379 28.4247 19.3496C31.3778 18.3203 34.5204 19.9141 35.4364 22.9033L39.618 36.5664C39.8622 36.5088 40.1141 36.4717 40.3739 36.458C41.5829 36.3936 42.7 36.8438 43.5067 37.6162L54.45 24.8721Z" fill="#172554"/>
</svg>
