<svg width="84" height="84" viewBox="0 0 84 84" fill="none" xmlns="http://www.w3.org/2000/svg">
<rect x="20" y="29" width="41" height="30" fill="white"/>
<path d="M0.5 42.0125C0.5 19 19.1542 0.345826 42.1667 0.345826C65.1792 0.345826 83.8333 19 83.8333 42.0125C83.8333 65.025 65.1792 83.6792 42.1667 83.6792C34.9792 83.6792 28.2125 81.8583 22.3062 78.65L5.14583 83.5292C2.39792 84.3104 -0.139584 81.7708 0.641666 79.025L5.52083 61.8625C2.21395 55.7697 0.487696 48.9449 0.5 42.0125ZM25.5 34.2C25.5 35.6375 26.6667 36.8042 28.1042 36.8042H56.2292C56.5711 36.8042 56.9098 36.7368 57.2257 36.6059C57.5417 36.4751 57.8288 36.2832 58.0706 36.0414C58.3124 35.7996 58.5042 35.5125 58.6351 35.1966C58.766 34.8806 58.8333 34.542 58.8333 34.2C58.8333 33.858 58.766 33.5194 58.6351 33.2034C58.5042 32.8875 58.3124 32.6004 58.0706 32.3586C57.8288 32.1167 57.5417 31.9249 57.2257 31.7941C56.9098 31.6632 56.5711 31.5958 56.2292 31.5958H28.1042C26.6667 31.5958 25.5 32.7625 25.5 34.2ZM28.1042 47.2208C27.4135 47.2208 26.7511 47.4952 26.2627 47.9836C25.7744 48.4719 25.5 49.1343 25.5 49.825C25.5 50.5157 25.7744 51.178 26.2627 51.6664C26.7511 52.1548 27.4135 52.4292 28.1042 52.4292H47.8958C48.5865 52.4292 49.2489 52.1548 49.7373 51.6664C50.2256 51.178 50.5 50.5157 50.5 49.825C50.5 49.1343 50.2256 48.4719 49.7373 47.9836C49.2489 47.4952 48.5865 47.2208 47.8958 47.2208H28.1042Z" fill="#7A81EB"/>
<ellipse cx="42" cy="44" rx="26" ry="24" fill="#7A81EB"/>
<path d="M61.6014 23.3674C58.9308 21.8344 55.5177 22.4644 53.4502 24.872L28.137 54.3492C25.0441 57.9509 19.3525 56.7757 18.0762 52.272V52.272C17.1372 48.9584 19.1742 45.4543 22.5129 44.6398L59.6523 35.579C65.4438 34.166 66.7003 26.2942 61.6014 23.3674V23.3674Z" fill="white"/>
<path d="M56.7077 66.1129C60.9307 63.4686 61.3578 57.395 57.5323 54.3874L25.6136 29.2938C22.1167 26.5447 23.1559 20.8383 27.4246 19.3497V19.3497C30.3768 18.3202 33.5204 19.9137 34.4358 22.9037L46.5174 62.3658C47.8469 66.7086 52.8302 68.541 56.7077 66.1129V66.1129Z" fill="white"/>
<path d="M43.7874 40.4252C43.9021 42.7398 42.1115 44.7161 39.7881 44.8394C37.4647 44.9628 35.4883 43.1863 35.3736 40.8717C35.259 38.5571 37.0495 36.5807 39.3729 36.4574C41.6963 36.3341 43.6728 38.1105 43.7874 40.4252Z" fill="white"/>
</svg>
