<svg width="160" height="146" viewBox="0 0 160 146" fill="none" xmlns="http://www.w3.org/2000/svg">
<path d="M115.858 26.8542C111.155 24.0006 105.114 24.7104 101.2 28.5763L30.8587 98.06C24.2285 104.609 12.9888 101.431 10.7705 92.3791L9.52635 87.3022C7.87603 80.5681 12.2595 73.8407 19.0864 72.6302L121.007 54.559C131.905 52.6266 134.599 38.2256 125.137 32.484L115.858 26.8542Z" fill="#172554"/>
<path d="M107.468 122.112C115.09 118.129 116.172 107.658 109.525 102.201L29.8033 36.7586C22.274 30.5778 24.8578 18.475 34.2547 15.9077L38.0358 14.8747C44.4482 13.1227 51.063 16.9174 52.7875 23.3373L78.9026 120.556C80.8948 127.973 89.2434 131.635 96.0493 128.079L107.468 122.112Z" fill="#172554"/>
<path d="M68.8574 65C68.8574 67.7614 66.6188 70 63.8574 70C61.096 70 58.8574 67.7614 58.8574 65C58.8574 62.2386 61.096 60 63.8574 60C66.6188 60 68.8574 62.2386 68.8574 65Z" fill="#172554"/>
</svg>
