<svg width="84" height="84" viewBox="0 0 84 84" fill="none" xmlns="http://www.w3.org/2000/svg">
<path fill-rule="evenodd" clip-rule="evenodd" d="M41.6685 0C18.656 0 0.00180697 18.6542 0.00180697 41.6667C-0.0104967 48.599 1.71576 55.4238 5.02264 61.5167L0.143473 78.6792C-0.637777 81.425 1.89972 83.9646 4.64764 83.1833L21.8081 78.3042C27.7143 81.5125 34.481 83.3333 41.6685 83.3333C64.681 83.3333 83.3351 64.6792 83.3351 41.6667C83.3351 18.6542 64.681 0 41.6685 0ZM53.9517 24.526C56.0192 22.1184 59.4323 21.4884 62.1029 23.0214C67.2018 25.9482 65.9453 33.82 60.1538 35.233L44.1351 39.141C44.2203 39.4408 44.2731 39.755 44.2892 40.0798C44.3364 41.0328 44.0606 41.9284 43.5577 42.661L58.0337 54.0417C61.8592 57.0492 61.4321 63.1228 57.2091 65.7671C53.3315 68.1952 48.3483 66.3628 47.0187 62.02L41.5706 44.2247C41.1703 44.3767 40.7401 44.4702 40.2899 44.4941C39.2563 44.5489 38.2914 44.2279 37.5286 43.6507L28.6385 54.0032C25.5456 57.6049 19.8539 56.4297 18.5777 51.926C17.6387 48.6125 19.6757 45.1083 23.0143 44.2938L35.9506 41.1378C35.9111 40.939 35.8857 40.7349 35.8754 40.5263C35.8177 39.3626 36.2417 38.2844 36.9728 37.4842L26.115 28.948C22.6181 26.1989 23.6573 20.4925 27.926 19.0039C30.8781 17.9744 34.0218 19.5679 34.9372 22.5579L39.12 36.2201C39.3637 36.1625 39.6158 36.1258 39.8747 36.112C41.0839 36.0479 42.1991 36.4983 43.0068 37.2713L53.9517 24.526Z" fill="white"/>
</svg>
